<?xml version="1.0"?>
<svg width="379.6" height="155.7" xmlns="http://www.w3.org/2000/svg">
<path d="M325.2,113.5H272l53.2-59.1V113.5L325.2,113.5z M368.7,113.5V0L262.8,117.6h-81.3c-3.5,0-6.3-2.8-6.3-6.3 c0-2.4,1.3-4.4,3.2-5.5c0.1,0,0.1-0.1,0.2-0.1c8.2-4.2,16.1-6.4,20.6-7.7l1.4-0.4c2.7-0.8,6.1-1.5,9.6-2.3c1.2-0.3,2.5-0.6,3.8-0.8 c21.5-4.9,50.6-13.3,50.6-47.6c0-7.6-1.9-15.3-6.3-22.2c-7-11-20.2-19.9-41.8-22.5c-4.2-0.5-8.8-0.8-13.7-0.8 c-33.5,0-56.1,17.6-56.9,44c0,0.5,0,0.9,0,1.4c0,14.6,11.8,26.4,26.4,26.4c14.6,0,26.4-11.9,26.4-26.4c0-14.6-11.8-26.4-26.4-26.4 c-0.8,0-1.6,0-2.4,0.1c0,0-0.1,0-0.1,0c-5.4,0.5-10.4,2.7-14.3,5.9c3-4.7,7.1-8.7,12.1-12c0.1,0,0.1-0.1,0.2-0.1c9-5.8,21-9,35.1-9 c1.5,0,3,0,4.4,0.1c0.3,0,0.6,0,0.9,0c3.1,0.4,5.5,3,5.5,6.2v73.2c0,3.4-2.4,6.3-5.5,7.1c-0.2,0-0.3,0.1-0.5,0.1 c-3,0.6-5.7,1.3-8.1,2l-1.3,0.4c-6.5,1.8-20,5.6-31.9,14.7c-4.2,3.2-7.8,6.7-10.9,10.6c-7.8,9.9-11.7,22-11.7,36.1h84.9l34.3-38.1 h62.3v38.1h43.5v-38.1h10.9v-4.1H368.7 M22,118.3L48.8,61l26.7,57.3H22z M57.7,32.2c-5.4,11.3-16.6,12.5-16.6,12.5l5.4,11.5l0,0.1h0 L0,155.7h4.5l15.6-33.3h57.3l15.5,33.3h48L70.6,4.7L57.7,32.2"></path>
</svg>