<?xml version="1.0" encoding="UTF-8"?>
<svg id="Layer_1" data-name="Layer 1" xmlns="http://www.w3.org/2000/svg" version="1.1" viewBox="0 0 379.6 155.7">
  <defs>
    <style>
      .cls-1 {
        fill: #fff;
        stroke-width: 0px;
      }
    </style>
  </defs>
  <path class="cls-1" d="M325.2,113.5h-53.2l53.2-59.1v59.1h0ZM368.7,113.5V0l-105.9,117.6h-81.3c-3.5,0-6.3-2.8-6.3-6.3s1.3-4.4,3.2-5.5c.1,0,.1,0,.2,0,8.2-4.2,16.1-6.4,20.6-7.7l1.4-.4c2.7-.8,6.1-1.5,9.6-2.3,1.2-.3,2.5-.6,3.8-.8,21.5-4.9,50.6-13.3,50.6-47.6s-1.9-15.3-6.3-22.2c-7-11-20.2-19.9-41.8-22.5-4.2-.5-8.8-.8-13.7-.8-33.5,0-56.1,17.6-56.9,44v1.4c0,14.6,11.8,26.4,26.4,26.4s26.4-11.9,26.4-26.4-11.8-26.4-26.4-26.4-1.6,0-2.4.1h-.1c-5.4.5-10.4,2.7-14.3,5.9,3-4.7,7.1-8.7,12.1-12,.1,0,.1-.1.2-.1,9-5.8,21-9,35.1-9s3,0,4.4,0h.9c3.1.4,5.5,3,5.5,6.2v73.2c0,3.4-2.4,6.3-5.5,7.1-.2,0-.3,0-.5,0-3,.6-5.7,1.3-8.1,2l-1.3.4c-6.5,1.8-20,5.6-31.9,14.7-4.2,3.2-7.8,6.7-10.9,10.6-7.8,9.9-11.7,22-11.7,36.1h84.9l34.3-38.1h62.3v38.1h43.5v-38.1h10.9v-4.1h-11M22,118.3l26.8-57.3,26.7,57.3H22ZM57.7,32.2c-5.4,11.3-16.6,12.5-16.6,12.5l5.4,11.5h0c0,0-46.5,99.5-46.5,99.5h4.5l15.6-33.3h57.3l15.5,33.3h48L70.6,4.7l-12.9,27.5"/>
</svg>