<?xml version="1.0" encoding="UTF-8"?>
<svg id="Pixar" xmlns="http://www.w3.org/2000/svg" version="1.1" xmlns:inkscape="http://www.inkscape.org/namespaces/inkscape" xmlns:sodipodi="http://sodipodi.sourceforge.net/DTD/sodipodi-0.dtd" xmlns:svg="http://www.w3.org/2000/svg" viewBox="0 0 2846.8 545">
  <defs>
    <style>
      .cls-1 {
        fill: #242021;
        stroke-width: 0px;
      }
    </style>
  </defs>
  <path class="cls-1" d="M2493.4,287.6c1,62.4,1.9,124.3,2.9,187.1,24.7,2.9,48.6,5.8,73,8.6,2,10.6,4.1,21.4,6.2,32.5-86.9-4.8-173.3-5-260.5,0,2-10.8,4.1-21.7,6.1-32.5,24.4-2.8,48.5-5.6,73.8-8.5,3.2-143.9,3.4-287.3.2-431.4-25.2-2.6-49.9-5.1-75-7.7-1.5-10.4-3-20.9-4.6-31.7,1.2-.2,2.1-.4,3-.4,63.5-.2,127-1,190.5-.4,32.3.3,64.6,2.1,96.8,4.7,28.2,2.2,56.1,7.3,82,19.8,23.6,11.5,42.1,28,50.7,53.6,8.2,24.3,5.6,48-4.9,70.9-17.7,38.7-46,68.1-81,91.5-1.5,1-3,2-4.8,3.2,29.1,49.5,60.1,97.5,92.7,144.6,32.6,47.1,66.2,93.4,106.4,135.5-13.8,2.2-27,3.7-39.9,6.6-8.8,2-15.3-.6-22-5.6-22.7-16.8-43.1-36.3-63.1-56.1-59.8-59.3-116.3-121.6-171.5-185.2-1.2-1.4-3.4-3.1-5.1-3-17,1-33.9,2.3-51.8,3.6ZM2496.1,40.8c-.9,69.3-1.8,137.8-2.7,207.7,16.1-2.1,31-3.3,45.7-6,26.7-4.9,50.9-15.5,70.4-35,23.3-23.2,33.1-51.7,30.3-84-1.9-22.4-14.5-39.4-32.4-52.3-32.8-23.6-70.9-28.6-111.2-30.4Z"/>
  <path class="cls-1" d="M1225.5,289.8c-41.8,59.9-80.2,121.1-115.4,185.6,18.1,2.8,35.2,5.4,52.8,8.1,1.5,10.4,3,20.8,4.6,31.9-68-2.4-135.6-5.2-203.9,1.3,2.4-7.3,5.1-13.7,6.5-20.4,2-9.9,6.7-14.7,17.4-15.1,9-.3,17.9-3.5,26.9-5.3,5.8-1.1,10.6-4,14.4-8.4,14.8-17.1,30.4-33.7,44.2-51.6,41.2-53.2,81.7-106.9,122.4-160.4.5-.7.9-1.4,1.4-2.1-14.9-19.9-29.7-39.7-44.6-59.6-33-44-65.9-87.9-98.9-131.9-2.3-3.1-5.1-5.7-7.2-8.9-4.9-7.5-11.9-10.9-20.6-12.2-10.8-1.7-21.6-4.1-32.4-6.1-2.6-.5-3.9-1.3-4.2-4.3-1.1-9.7-2.7-19.4-4.2-29.8,6.3.8,12.2,1.9,18,2.1,24.8,1,49.6,2.6,74.4,2.5,42-.2,84-1.6,125.9-2.5,7.3-.2,14.6-.6,22.7-1-1.4,5.1-2.6,9.8-3.9,14.5-1.4,5.1-3.1,10.2-4.4,15.3-.6,2.4-1.6,3.1-3.9,3.4-16.2,2.1-32.3,4.3-49.6,6.7,30.5,47.8,61.8,93.9,94.8,139.5,32.8-45.6,65-91,94-139.5-12-2-23.2-4.1-34.5-5.8-9.4-1.5-9.5-1.3-11.4-10.9-1.5-7.6-2.9-15.3-4.5-23.4,61.8,4.5,123.1,5.8,184.9,0-.5,5.9-1,11.1-1.5,16.4-.5,5.1-1,10.2-1.6,15.7-14.5,3.3-28.8,6.8-43.3,9.9-4.3.9-7.8,2.7-10.7,5.9-13.2,14.5-26.9,28.7-39.6,43.7-35.1,41.2-69.9,82.7-105.2,124.7,75,105.9,149.8,211.3,224.6,317-14.6,3.5-29.6,7.1-44.6,10.4-1.5.3-3.6-1-5.1-2.2-24.9-19.1-48-40.2-70.1-62.5-49.1-49.3-93.5-102.8-137.2-156.8-8.9-11-17.9-21.9-27.5-33.7Z"/>
  <path class="cls-1" d="M2184.9,517.2c-51.2-7.9-102.1-5.8-152.9-5.6-28,0-56,1.3-83.9,2.2-6.3.2-12.6.8-19.8,1.3,2.7-11.4,5.3-22.2,7.9-32.8,22.1-2.5,43.7-5,66.2-7.6-1.3-3.8-2.2-6.9-3.3-9.9-20-57.3-39.9-114.5-59.9-171.8-2.8-7.9-3-8-11-7.6-44.1,2.1-88.2,4.2-132.3,6.3-8.6.4-8.7.5-11.2,9-16,53.7-30.9,107.7-42.1,162.6-.6,3.1-1,6.2-1.7,9.9,11.7,1.8,23,3.6,34.4,5.3,6.4.9,12.9,1.4,19.3,2.4,1.5.2,3.9,1.4,4.1,2.5,2.1,10.1,3.8,20.2,5.8,30.9-69.6-4-138.8-6.9-208.4-.7,1.7-11.3,3.2-22,4.8-32.9,12.8-1.8,25.3-3.4,37.8-5.2,6.7-1,13.4-2.4,20.2-3.3,3.1-.5,4.9-1.9,6.1-4.8,9.6-22.5,19.9-44.6,28.8-67.4,46.1-118.6,91.7-237.4,137.5-356.1.4-1.1.7-2.1,1.3-4.1-17.3-2.6-34.1-5.1-51.6-7.6-.5-10.5-.9-21.2-1.4-32.3,77,4.9,153.6,4.7,230.3,1,0,.8,0,1.4,0,2-1.5,10-3,20.1-4.5,30.3-16.5,2.4-32.9,4.8-50,7.2,4.7,14.4,9,28.2,13.6,41.8,34.2,101.7,69.2,203.2,109.2,302.8,11.3,28.2,24.3,55.7,36.3,83.6,1.5,3.5,3.7,5,7.3,5.6,17.9,2.7,35.9,5.5,53.8,8.3,2.2.3,4.7,0,5.1,3.4,1.3,10.2,2.7,20.4,4.2,31.1ZM1802.7,242.6c40.9,1,80.9,1.9,121.4,2.9-19.6-57.8-39.1-115-58.8-173-21,57.1-41.7,113.3-62.7,170.1Z"/>
  <path class="cls-1" d="M181.4,474.2c14.3,1.6,27.5,3.1,40.7,4.5,14.4,1.5,28.8,2.9,43.3,4.2,3.1.3,4.5,1.3,5.2,4.6,2,9.6,4.4,19,6.8,28.8-92.7-4.5-184.9-5.3-277.3,0,1.1-5.7,2.1-11.1,3.1-16.5,1-5.2,2-10.4,3.1-16.1,24.1-3.1,48.3-6.2,73.1-9.3.2-4,.6-7.8.7-11.6.8-57.5,2-115,2.1-172.5.1-68.2-.6-136.3-1.1-204.5,0-12.8-.9-25.6-1.2-38.5,0-3.2-1.2-4.7-4.6-5-20.9-2.2-41.7-4.6-62.5-6.9-2.3-.3-4.6-.4-7.4-.7C3.7,24.3,2.2,13.7.6,2.6c11.5,0,22.4,0,33.4,0,60.3,0,120.6-.4,181,.2,36.7.4,73.2,3,109.2,10.9,29,6.4,55.4,17.9,76.7,39.1,20.2,20.2,29.6,44.6,27.6,73.2-4.3,62.8-37,107.2-90.3,137.8-33.2,19.1-69.5,29.9-106.7,37.8-9.1,1.9-18.3,3.5-28.1,5.4,1.1-9.5,2.7-18.3,3.1-27.2.3-7.2,3.1-9.7,10-11.6,27.1-7.4,51.9-19.3,73.1-38.3,39.7-35.5,45.7-91.9,29.2-129.4-13-29.5-36.3-46.4-67.7-52.5-22.3-4.3-44.8-6.2-67.5-6.5-.5,0-1,.2-2.5.5-3.3,143.7-2.4,287.6.3,432.2Z"/>
  <path class="cls-1" d="M639.5,43.5c-24.3-3.1-48-6.1-72.3-9.1-2.6-10.7-5.2-21.7-7.8-32.7,87.9,5.3,175.5,5.5,263.9,0-2.5,10.6-5.1,21.6-7.7,32.8-24.1,3.2-48,6.3-71.7,9.5-4.7,14.5-5.2,381.9-.6,430.4,7.5,1.1,15.2,2.4,22.9,3.3,15.4,1.8,30.8,3.4,46.2,5.2,1.3.2,3.2,1.4,3.5,2.5,2.6,10.1,5,20.3,7.4,30.7-87.8-5.3-175.2-4.3-263.3-.2,2.1-11.1,4.2-22,6.2-32.6,20.7-2.5,41-5.1,61.3-7.5,12.2-1.5,12.2-1.4,12.5-13.7,3-112.8,2.5-225.6,1.6-338.4-.2-23.5-1-47-1.6-70.5,0-3-.3-6-.5-9.7Z"/>
</svg>